<?xml version="1.0" standalone="no"?>
<!DOCTYPE svg PUBLIC "-//W3C//DTD SVG 20010904//EN"
 "http://www.w3.org/TR/2001/REC-SVG-20010904/DTD/svg10.dtd">
<svg version="1.0" xmlns="http://www.w3.org/2000/svg"
 width="300.000000pt" height="225.000000pt" viewBox="0 0 300.000000 225.000000"
 preserveAspectRatio="xMidYMid meet">
<metadata>
Created by potrace 1.10, written by Peter Selinger 2001-2011
</metadata>
<g transform="translate(0.000000,225.000000) scale(0.100000,-0.100000)"
fill="#000000" stroke="none">
<path d="M665 1804 c-134 -34 -238 -94 -365 -210 -87 -79 -143 -144 -171 -196
-23 -45 -24 -68 -4 -94 8 -10 15 -33 15 -51 0 -47 106 -165 174 -194 48 -20
61 -21 201 -16 179 8 282 23 532 78 204 45 375 60 447 40 22 -6 42 -8 44 -6
10 10 -127 66 -194 80 l-69 14 62 -3 c166 -10 303 -143 422 -409 26 -57 85
-163 120 -216 8 -12 23 -3 78 44 37 33 69 60 71 61 5 3 -29 53 -92 139 -33 44
-85 114 -115 155 -89 120 -160 190 -221 219 -50 23 -66 25 -180 24 -110 0
-129 -3 -163 -23 -20 -12 -44 -19 -53 -16 -8 3 -13 2 -10 -3 3 -5 -5 -12 -18
-15 -13 -3 -32 -9 -42 -13 -12 -4 -15 -3 -10 5 9 14 -3 15 -24 2 -12 -8 -12
-10 5 -11 16 0 14 -3 -7 -11 -16 -5 -28 -14 -28 -19 0 -4 -7 -6 -15 -3 -8 4
-12 10 -9 15 3 5 0 9 -5 9 -14 0 -14 -13 0 -27 9 -9 6 -10 -11 -6 -17 5 -21 3
-15 -7 5 -8 4 -11 -2 -7 -5 3 -45 -5 -89 -17 -131 -38 -139 -39 -126 -23 10
12 8 16 -9 20 -15 4 -19 2 -15 -8 3 -9 0 -12 -10 -8 -9 3 -14 -1 -14 -12 0 -9
-5 -13 -11 -10 -6 4 -8 9 -5 12 3 3 -1 11 -7 18 -10 10 -15 7 -29 -18 -15 -27
-17 -29 -18 -11 0 12 -7 25 -16 28 -11 4 -14 0 -12 -17 3 -22 3 -22 -147 -21
-129 1 -157 4 -198 22 -26 11 -47 28 -47 36 0 8 -8 17 -19 21 -17 5 -51 49
-80 102 -10 20 -9 22 6 16 10 -3 24 -13 30 -21 7 -9 13 -11 13 -6 0 15 40 10
49 -5 6 -10 10 -8 15 5 5 13 9 15 18 6 16 -16 28 -15 28 3 0 11 -11 15 -39 15
-22 0 -42 3 -44 8 -20 33 263 365 290 339 3 -4 5 -29 4 -56 0 -28 3 -61 8 -74
25 -65 133 -124 269 -147 102 -17 161 -2 218 56 48 47 62 92 44 139 -6 17 -12
56 -13 89 -2 56 -4 60 -50 102 -62 56 -140 85 -242 90 -44 1 -89 1 -100 -2z
m-66 -56 c-24 -18 -48 -31 -52 -30 -4 1 -7 -3 -6 -10 1 -7 1 -22 0 -33 -2 -20
-2 -20 -16 -1 -15 20 -15 20 -15 0 0 -14 -2 -16 -9 -5 -5 7 -11 9 -14 4 -3 -5
-2 -15 2 -22 6 -9 11 -10 15 -2 10 16 26 13 26 -5 0 -8 -4 -13 -9 -10 -5 3
-11 -1 -15 -9 -9 -24 -25 -17 -40 18 -17 40 -12 46 85 97 91 48 106 50 48 8z
m249 17 c17 -4 32 -11 32 -16 0 -5 6 -6 13 -3 15 5 87 -56 87 -74 0 -7 5 -12
10 -12 18 0 11 18 -22 57 l-32 38 37 -34 c20 -19 37 -44 37 -55 0 -16 2 -18 9
-7 7 11 11 9 21 -9 8 -15 8 -20 1 -16 -14 9 -14 0 0 -27 12 -22 12 -22 -10 -3
-24 22 -27 12 -6 -24 21 -37 18 -54 -14 -89 -23 -25 -35 -30 -54 -26 -15 4
-28 2 -32 -5 -5 -9 -1 -10 16 -6 18 4 17 2 -6 -9 -28 -14 -29 -15 -5 -13 14 2
31 9 38 16 16 15 29 15 37 2 3 -5 2 -10 -3 -10 -5 0 -9 -7 -9 -15 0 -9 5 -14
11 -12 6 2 10 18 8 36 -1 21 3 34 13 37 8 4 15 12 15 19 0 8 4 16 8 19 5 3 9
-13 10 -34 2 -35 -4 -45 -43 -85 -25 -25 -50 -45 -54 -45 -5 0 -17 -3 -27 -7
-14 -5 -16 -2 -10 20 5 23 3 27 -14 27 -11 0 -20 -7 -20 -15 0 -8 5 -15 10
-15 21 0 9 -18 -15 -22 -14 -3 -25 -2 -25 2 0 4 -11 5 -25 2 -17 -3 -25 0 -25
9 0 10 -3 10 -8 3 -5 -8 -14 -9 -32 -1 -14 5 -34 10 -45 11 -14 1 -20 8 -21
25 -1 13 -6 26 -11 30 -6 3 -13 13 -16 21 -3 9 -6 5 -6 -10 -1 -15 4 -31 11
-38 24 -24 1 -20 -46 9 -53 33 -92 102 -82 144 3 13 2 27 -4 30 -17 11 -10 58
14 98 l23 37 12 -41 c12 -41 9 -51 -29 -89 -3 -3 -6 -19 -8 -37 -3 -26 3 -36
32 -58 19 -15 40 -24 45 -20 6 3 41 -3 78 -15 67 -19 99 -21 138 -6 11 4 34
13 50 19 17 6 45 26 63 45 l32 35 0 -27 c0 -16 4 -25 10 -21 6 3 10 15 10 26
0 17 -11 24 -33 20 -5 -1 -7 4 -4 11 2 7 9 12 14 11 10 -2 5 65 -6 71 -3 2 -6
-11 -7 -29 -1 -41 -25 -80 -65 -104 -21 -13 -27 -21 -17 -25 7 -3 0 -4 -17 -1
-24 4 -27 3 -15 -6 12 -8 9 -9 -12 -5 -15 3 -30 1 -33 -5 -15 -23 -181 26
-182 54 -2 28 -16 96 -29 144 -16 55 -13 73 12 73 8 0 14 5 14 10 0 22 37 8
48 -17 l11 -28 -5 32 c-4 25 -1 32 13 35 25 6 102 2 141 -7z m-389 -131 c13
-35 12 -38 -16 -66 l-30 -30 -22 38 -23 38 34 28 c18 15 35 28 38 28 4 0 12
-16 19 -36z m158 -46 c1 -24 2 -56 2 -72 0 -23 4 -27 18 -22 14 6 15 4 6 -5
-9 -9 -18 -6 -42 12 -16 13 -30 30 -30 38 -1 10 38 91 44 91 0 0 2 -19 2 -42z
m-233 -23 l19 -35 -28 -30 c-16 -17 -31 -30 -34 -30 -8 0 -51 67 -51 79 0 5 9
13 20 16 11 4 17 11 14 17 -4 6 -2 8 4 4 6 -3 13 -2 17 4 11 17 20 11 39 -25z
m571 -45 c-16 -16 -32 -30 -37 -30 -8 0 53 59 61 60 3 0 -8 -13 -24 -30z
m-642 -31 l20 -35 -29 -32 -30 -32 -37 45 c-22 26 -30 42 -21 38 12 -4 15 -3
10 6 -4 6 -4 11 1 10 20 -3 34 2 28 11 -4 6 -11 7 -17 4 -7 -5 -8 -2 -4 5 5 7
14 10 22 7 8 -3 14 -1 14 5 0 20 23 3 43 -32z m-70 -76 c23 -31 25 -38 13 -52
-7 -9 -17 -27 -21 -41 l-8 -24 -29 34 c-36 43 -55 76 -38 65 9 -5 10 -1 5 16
-7 21 -6 22 9 10 14 -12 16 -12 10 4 -6 14 -4 16 6 10 10 -6 12 -4 7 8 -10 26
15 10 46 -30z m-23 -130 c0 -16 -19 -16 -52 -1 -23 11 -26 19 -25 54 l1 42 38
-41 c20 -23 37 -48 38 -54z m1247 -40 c8 -10 12 -12 8 -5 -4 8 2 12 19 12 25
0 36 -22 17 -34 -11 -7 -91 24 -91 36 0 15 32 8 47 -9z m108 -13 c52 -25 55
-29 42 -58 -6 -15 -12 -29 -14 -31 -1 -2 -16 8 -32 22 -17 14 -35 27 -40 29
-5 1 -7 15 -4 30 3 15 8 26 12 25 3 -2 20 -9 36 -17z m-230 -19 c46 -10 45
-11 -10 -17 -22 -2 -58 -6 -80 -10 -22 -3 -52 -8 -66 -10 -15 -2 -45 -7 -68
-13 -22 -5 -39 -5 -36 -1 3 5 20 12 38 15 17 4 37 11 42 15 31 25 114 34 180
21z m329 -53 c-3 -4 2 -8 10 -8 23 0 29 -36 10 -65 -16 -24 -34 -33 -34 -17 0
5 -11 22 -24 37 -23 27 -24 30 -10 57 13 24 17 26 34 16 10 -7 16 -16 14 -20z
m98 -111 c15 -18 33 -43 40 -57 13 -25 42 -58 56 -62 4 -2 6 -7 4 -12 -2 -5
10 -23 25 -40 18 -19 21 -25 8 -17 -12 8 -10 4 5 -10 l25 -23 -40 -37 c-22
-20 -47 -39 -55 -42 -9 -3 -4 -6 11 -6 16 -1 29 6 33 15 3 8 11 12 17 9 8 -5
8 -10 0 -18 -19 -19 -12 -28 7 -9 11 9 15 22 11 27 -4 6 -2 18 5 27 12 17 15
16 40 -7 29 -27 36 -75 11 -75 -8 0 -15 9 -15 20 0 26 -5 25 -38 -5 -22 -21
-24 -25 -9 -25 10 0 16 4 13 9 -3 5 1 11 8 14 16 6 26 -10 19 -30 -3 -6 -12
-9 -20 -6 -11 4 -14 2 -9 -5 4 -7 1 -12 -8 -12 -8 0 -19 -7 -23 -15 -6 -11
-12 -3 -22 29 -7 26 -20 46 -30 49 -10 2 -18 11 -18 20 0 9 5 14 10 10 5 -3 4
4 -2 14 -6 11 -7 24 -3 28 4 5 1 5 -6 1 -7 -4 -10 -11 -7 -16 3 -5 1 -11 -4
-15 -6 -3 -8 6 -5 21 3 16 1 23 -6 19 -6 -4 -7 1 -3 11 5 13 3 15 -7 9 -8 -5
-11 -4 -7 2 3 5 0 21 -8 36 -8 15 -12 27 -9 27 3 0 -4 10 -15 22 l-20 21 29
34 c17 18 30 37 30 41 -1 4 -14 -9 -31 -28 -24 -29 -31 -32 -39 -20 -5 8 -10
21 -10 28 0 6 -4 12 -9 12 -20 0 -20 35 1 68 19 32 23 34 32 18 6 -10 23 -32
38 -49z"/>
<path d="M725 1741 c-3 -5 -1 -12 5 -16 5 -3 10 -1 10 5 0 6 5 8 10 5 6 -3 10
-1 10 4 0 13 -27 14 -35 2z"/>
<path d="M641 1716 c-16 -19 -11 -29 8 -17 7 5 12 14 9 21 -3 9 -8 7 -17 -4z"/>
<path d="M768 1713 c7 -3 16 -2 19 1 4 3 -2 6 -13 5 -11 0 -14 -3 -6 -6z"/>
<path d="M895 1700 c5 -9 1 -10 -16 -5 -19 5 -17 2 9 -14 17 -11 32 -25 32
-31 0 -5 5 -10 12 -10 6 0 1 11 -12 25 -13 14 -19 25 -13 25 17 0 43 -35 43
-59 0 -12 4 -20 9 -16 18 10 -10 65 -41 81 -19 10 -27 11 -23 4z"/>
<path d="M648 1661 c-13 -14 -16 -20 -7 -13 9 6 18 10 21 7 3 -3 12 3 21 13
14 16 15 19 2 19 -8 0 -25 -12 -37 -26z"/>
<path d="M780 1683 c0 -5 12 -9 28 -9 46 -3 64 -10 83 -33 23 -29 9 -67 -19
-52 -9 5 -28 8 -42 6 -14 -1 -36 -3 -49 -4 -49 -2 -8 -15 53 -16 59 -2 65 0
75 22 14 31 1 57 -39 78 -30 16 -90 21 -90 8z"/>
<path d="M690 1653 c-12 -16 -25 -27 -28 -25 -4 2 -8 -5 -9 -15 -2 -15 -1 -15
6 2 10 20 10 20 11 0 1 -17 3 -17 11 5 6 13 17 33 26 42 9 10 13 18 10 18 -3
0 -15 -12 -27 -27z"/>
<path d="M732 1664 c-12 -8 -22 -20 -22 -25 0 -6 5 -6 13 1 6 6 21 17 32 25
11 8 15 15 10 15 -6 0 -21 -7 -33 -16z"/>
<path d="M567 1656 c-6 -16 2 -28 14 -20 12 7 11 34 0 34 -5 0 -11 -6 -14 -14z"/>
<path d="M551 1614 c0 -11 3 -14 6 -6 3 7 2 16 -1 19 -3 4 -6 -2 -5 -13z"/>
<path d="M650 1579 c0 -5 5 -7 10 -4 6 3 10 8 10 11 0 2 -4 4 -10 4 -5 0 -10
-5 -10 -11z"/>
<path d="M692 1578 c14 -42 106 -67 166 -45 12 5 22 5 21 0 -1 -4 -1 -12 0
-16 1 -10 71 59 71 70 -1 4 -10 -3 -21 -16 -16 -20 -31 -25 -84 -28 -54 -4
-70 -1 -110 22 -26 14 -45 20 -43 13z"/>
<path d="M665 1560 c-6 -10 51 -50 70 -50 6 1 -7 10 -28 21 -21 11 -35 24 -32
29 4 6 4 10 1 10 -3 0 -8 -4 -11 -10z"/>
<path d="M845 1510 c3 -5 1 -10 -6 -10 -7 0 -10 -2 -7 -5 7 -8 38 5 38 16 0 5
-7 9 -16 9 -8 0 -12 -4 -9 -10z"/>
<path d="M590 1471 c0 -5 5 -13 10 -16 6 -3 10 -2 10 4 0 5 -4 13 -10 16 -5 3
-10 2 -10 -4z"/>
<path d="M777 1416 c-3 -7 -1 -19 4 -27 6 -11 11 -11 21 -1 9 9 9 12 0 12 -7
0 -12 5 -12 10 0 6 24 9 59 8 33 -2 57 0 55 4 -8 13 -122 8 -127 -6z"/>
<path d="M423 1616 c4 -10 1 -13 -9 -9 -10 4 -12 0 -8 -11 5 -13 9 -14 20 -5
17 14 19 39 3 39 -6 0 -9 -7 -6 -14z"/>
<path d="M353 1548 c4 -12 2 -15 -9 -11 -7 3 -14 0 -14 -5 0 -19 17 -22 30 -6
11 12 11 17 0 27 -10 10 -12 9 -7 -5z"/>
<path d="M265 1470 c-3 -5 -1 -18 4 -27 10 -17 10 -17 11 0 0 10 4 15 10 12 6
-3 7 1 4 9 -7 18 -20 21 -29 6z"/>
<path d="M201 1386 c-8 -10 -8 -16 3 -25 11 -9 15 -8 20 5 13 34 -1 47 -23 20z"/>
<path d="M160 1312 c0 -12 19 -26 26 -19 2 2 -2 10 -11 17 -9 8 -15 8 -15 2z"/>
<path d="M1560 1200 c0 -5 7 -10 16 -10 8 0 12 5 9 10 -3 6 -10 10 -16 10 -5
0 -9 -4 -9 -10z"/>
<path d="M1650 1125 c0 -9 5 -15 11 -13 6 2 11 8 11 13 0 5 -5 11 -11 13 -6 2
-11 -4 -11 -13z"/>
<path d="M1726 1041 c-4 -7 -5 -15 -2 -18 9 -9 19 4 14 18 -4 11 -6 11 -12 0z"/>
<path d="M1785 939 c-4 -6 -5 -13 -2 -16 7 -7 27 6 27 18 0 12 -17 12 -25 -2z"/>
<path d="M1825 888 l-40 -43 43 40 c39 36 47 45 39 45 -2 0 -21 -19 -42 -42z"/>
<path d="M1850 840 c-10 -6 -11 -12 -5 -19 6 -6 14 -4 22 4 15 17 3 27 -17 15z"/>
<path d="M1925 780 c-3 -5 -1 -10 4 -10 6 0 11 5 11 10 0 6 -2 10 -4 10 -3 0
-8 -4 -11 -10z"/>
<path d="M1690 1742 c0 -5 45 -53 101 -107 55 -54 93 -95 82 -92 -10 3 -80 28
-156 56 -76 28 -143 49 -148 45 -14 -8 1 -26 18 -20 8 3 11 2 8 -4 -6 -10 140
-95 365 -210 173 -89 212 -116 189 -130 -15 -10 -18 -6 45 -95 l39 -56 -16
-35 c-35 -72 -9 -201 62 -312 47 -72 97 -108 173 -124 48 -10 62 -9 102 6 93
36 136 91 136 176 0 67 -19 109 -75 169 -26 28 -44 54 -41 60 10 15 -57 61
-88 61 -16 0 -36 10 -49 24 -12 14 -35 39 -51 57 -29 30 -83 69 -98 69 -4 0
29 -36 72 -79 60 -59 93 -84 128 -95 34 -12 53 -25 67 -49 10 -17 32 -45 47
-62 63 -67 85 -162 53 -225 -36 -69 -138 -75 -239 -14 l-41 25 35 -31 c42 -38
69 -50 118 -51 20 -1 28 -4 18 -6 -15 -4 -16 -7 -5 -14 25 -16 -45 -10 -102 8
-96 31 -177 142 -209 285 -14 61 -4 157 10 108 5 -15 8 -18 9 -8 1 9 4 24 8
34 5 13 3 15 -8 9 -11 -6 -11 -5 -2 5 9 10 4 24 -26 64 -51 70 -53 74 -44 89
13 20 12 37 -2 37 -7 0 -18 7 -25 15 -10 13 -9 15 9 15 12 0 20 -3 18 -7 -3
-5 5 -8 16 -8 12 -1 37 -4 55 -8 18 -4 31 -3 28 2 -3 4 -20 11 -38 14 -18 4
-50 11 -70 16 -22 5 -36 5 -32 0 9 -15 -9 -10 -30 9 -12 10 -73 42 -136 71
-122 57 -340 170 -340 177 0 5 41 -11 87 -34 21 -11 44 -17 52 -14 8 2 11 0 7
-6 -3 -5 1 -13 10 -16 8 -3 13 -2 10 3 -6 9 31 -2 187 -53 43 -14 89 -26 102
-26 14 0 25 -5 25 -10 0 -6 11 -16 25 -22 17 -7 21 -14 14 -19 -17 -10 -1 -29
18 -22 12 5 14 3 9 -8 -4 -8 0 -5 9 6 13 16 19 17 34 8 18 -11 31 -8 31 7 0 4
-18 12 -39 19 -22 6 -90 47 -151 91 -154 111 -347 240 -360 240 -5 0 -10 -4
-10 -8z m205 -142 c24 -16 49 -30 55 -30 7 0 10 -7 6 -15 -3 -9 0 -15 8 -15 8
0 38 -16 67 -35 30 -19 51 -35 47 -35 -4 0 -40 12 -80 26 -84 30 -134 69 -116
91 8 11 7 12 -6 7 -11 -4 -24 1 -37 15 -31 33 3 28 56 -9z"/>
<path d="M1811 1526 c10 -9 69 -36 69 -32 0 6 -55 36 -66 36 -4 0 -5 -2 -3 -4z"/>
<path d="M1920 1470 c8 -5 20 -10 25 -10 6 0 3 5 -5 10 -8 5 -19 10 -25 10 -5
0 -3 -5 5 -10z"/>
<path d="M2551 1441 c-18 -5 -46 -18 -62 -30 l-28 -21 -85 20 c-76 17 -116 18
-116 3 0 -3 20 -23 45 -45 53 -46 57 -60 15 -51 -22 4 -30 2 -30 -8 0 -17 111
-66 169 -75 28 -5 49 -16 64 -34 26 -33 80 -62 100 -54 8 3 38 -2 66 -12 77
-25 159 -16 213 23 92 66 100 136 24 208 -26 25 -63 47 -96 59 -62 20 -227 30
-279 17z m264 -32 c50 -14 97 -49 124 -93 35 -56 13 -99 -72 -144 -23 -12 -33
-22 -25 -25 7 -3 -11 -6 -39 -6 -30 -1 -80 8 -115 20 -43 15 -63 18 -66 11 -5
-16 -37 1 -78 39 -18 18 -53 35 -88 44 -31 8 -69 21 -82 28 -22 11 -23 15 -11
26 12 9 18 9 28 -1 15 -14 175 -50 161 -36 -4 4 -30 12 -57 17 -73 14 -122 37
-155 74 -15 18 -27 33 -26 35 2 1 35 -5 74 -14 71 -16 72 -16 108 7 21 12 53
26 73 30 45 10 193 3 246 -12z"/>
<path d="M2793 1392 c38 -10 73 -25 78 -33 6 -9 9 -10 9 -2 0 18 -49 40 -105
47 -46 6 -45 5 18 -12z"/>
<path d="M2564 1379 c-3 -6 -12 -8 -20 -5 -8 3 -17 -1 -20 -9 -12 -30 7 -61
57 -94 81 -55 265 -91 297 -59 40 40 -16 126 -99 153 -59 20 -205 29 -215 14z
m145 -20 c101 -16 150 -52 157 -114 2 -24 0 -25 -54 -25 -101 1 -260 73 -270
123 -5 26 66 33 167 16z"/>
<path d="M2610 1216 c0 -3 9 -10 20 -16 11 -6 20 -8 20 -6 0 3 -9 10 -20 16
-11 6 -20 8 -20 6z"/>
<path d="M2690 1202 c0 -11 39 -23 82 -27 34 -2 27 11 -9 18 -16 3 -38 8 -50
12 -14 4 -23 3 -23 -3z"/>
<path d="M2818 1173 c7 -3 16 -2 19 1 4 3 -2 6 -13 5 -11 0 -14 -3 -6 -6z"/>
<path d="M2001 1436 c8 -7 79 -35 79 -31 0 7 -58 35 -71 35 -7 0 -10 -2 -8 -4z"/>
<path d="M2215 1297 c30 -20 55 -28 55 -16 0 5 -12 14 -26 19 -36 14 -52 12
-29 -3z"/>
<path d="M331 1228 c0 -28 2 -30 9 -13 12 28 12 45 0 45 -5 0 -10 -15 -9 -32z"/>
<path d="M1000 1239 c-154 -23 -287 -25 -450 -5 -148 19 -190 20 -190 5 0 -7
9 -9 21 -6 15 4 19 2 15 -9 -7 -18 2 -18 20 1 16 16 34 6 47 -25 4 -10 6 -9 6
6 1 18 6 20 29 16 15 -3 30 -10 34 -16 6 -8 8 -8 8 0 0 17 48 4 53 -15 4 -15
5 -15 6 0 1 11 10 17 26 17 14 0 25 -4 25 -8 0 -3 13 -5 29 -2 22 3 29 -1 34
-18 4 -16 2 -20 -8 -16 -9 3 -13 -2 -12 -15 1 -13 9 -19 25 -19 13 0 20 4 17
10 -4 6 -11 7 -17 4 -7 -5 -8 -2 -2 7 5 8 7 22 6 32 -2 12 3 17 22 17 13 0 27
-6 29 -12 4 -10 6 -10 6 0 1 18 51 15 51 -3 0 -8 4 -15 10 -15 5 0 7 6 4 14
-5 14 22 30 36 21 5 -3 20 -1 35 5 22 9 26 8 22 -4 -3 -8 1 -17 10 -20 21 -9
31 3 13 14 -8 5 -12 11 -10 13 11 8 110 23 110 16 0 -4 -5 -9 -12 -11 -6 -2
-8 -10 -4 -17 10 -16 39 7 32 26 -4 9 3 13 22 14 88 4 145 9 150 14 11 11
-128 2 -248 -16z"/>
<path d="M207 1209 c7 -7 15 -10 18 -7 3 3 -2 9 -12 12 -14 6 -15 5 -6 -5z"/>
<path d="M310 1189 c0 -5 9 -9 20 -9 11 0 20 2 20 4 0 2 -9 6 -20 9 -11 3 -20
1 -20 -4z"/>
<path d="M440 1179 c0 -5 11 -9 25 -9 14 0 25 2 25 4 0 2 -11 6 -25 8 -14 3
-25 1 -25 -3z"/>
<path d="M570 1169 c0 -5 9 -9 20 -9 11 0 20 2 20 4 0 2 -9 6 -20 9 -11 3 -20
1 -20 -4z"/>
<path d="M935 1170 c4 -6 1 -19 -7 -28 -12 -15 -11 -16 5 -3 19 15 23 41 6 41
-5 0 -7 -5 -4 -10z"/>
<path d="M1000 1170 c0 -5 5 -10 11 -10 5 0 7 5 4 10 -3 6 -8 10 -11 10 -2 0
-4 -4 -4 -10z"/>
<path d="M310 1160 c0 -5 9 -10 20 -10 11 0 20 5 20 10 0 6 -9 10 -20 10 -11
0 -20 -4 -20 -10z"/>
<path d="M376 1153 c-6 -14 -5 -15 5 -6 7 7 10 15 7 18 -3 3 -9 -2 -12 -12z"/>
<path d="M810 1155 c0 -8 5 -15 11 -15 6 0 9 -6 6 -14 -6 -16 2 -28 14 -20 5
3 4 14 -1 25 -8 14 -7 19 2 19 9 0 9 3 -2 10 -21 14 -30 12 -30 -5z"/>
<path d="M440 1150 c0 -5 11 -9 25 -8 14 1 25 6 25 10 0 4 -11 8 -25 8 -14 0
-25 -4 -25 -10z"/>
<path d="M570 1140 c0 -5 9 -10 21 -10 11 0 17 5 14 10 -3 6 -13 10 -21 10 -8
0 -14 -4 -14 -10z"/>
<path d="M873 1134 c-7 -7 -9 -15 -5 -17 4 -3 13 1 19 9 7 7 9 15 5 17 -4 3
-13 -1 -19 -9z"/>
<path d="M270 1130 c0 -5 5 -10 11 -10 5 0 7 5 4 10 -3 6 -8 10 -11 10 -2 0
-4 -4 -4 -10z"/>
<path d="M312 1124 c-7 -8 -8 -14 -3 -14 10 0 25 19 20 25 -2 1 -10 -3 -17
-11z"/>
<path d="M387 1117 c-3 -9 1 -21 9 -27 11 -10 14 -10 14 1 0 8 -4 20 -9 27 -7
11 -9 11 -14 -1z"/>
<path d="M461 1119 c0 -8 6 -24 14 -35 13 -17 14 -17 15 -1 0 9 -4 17 -9 17
-5 0 -12 8 -14 18 -4 13 -5 14 -6 1z"/>
<path d="M513 1105 c-6 -7 -8 -18 -3 -26 12 -18 23 -6 18 19 -2 16 -5 17 -15
7z"/>
<path d="M593 1106 c2 -19 37 -33 37 -15 0 5 -6 9 -14 9 -8 0 -17 6 -20 13 -3
6 -5 3 -3 -7z"/>
<path d="M2409 1105 c18 -8 36 -15 40 -15 13 1 -45 29 -59 29 -8 0 0 -6 19
-14z"/>
<path d="M345 1100 c-3 -5 1 -10 9 -10 9 0 16 5 16 10 0 6 -4 10 -9 10 -6 0
-13 -4 -16 -10z"/>
<path d="M430 1096 c0 -9 5 -16 10 -16 6 0 10 4 10 9 0 6 -4 13 -10 16 -5 3
-10 -1 -10 -9z"/>
<path d="M2301 1084 c-31 -39 -26 -87 14 -169 44 -88 99 -147 159 -170 52 -20
84 -15 119 18 12 12 15 16 5 8 -11 -9 -18 -10 -18 -3 0 6 4 13 8 16 12 7 3 95
-13 126 -45 87 -180 188 -232 175 -23 -5 -25 -4 -14 9 8 10 9 16 3 16 -6 0
-20 -12 -31 -26z m100 -35 c83 -42 169 -153 169 -216 0 -59 -10 -73 -49 -73
-44 0 -102 34 -136 80 -57 76 -96 178 -81 215 8 21 50 19 97 -6z"/>
<path d="M550 1087 c0 -8 6 -14 13 -14 8 0 14 6 14 14 0 7 -6 13 -14 13 -7 0
-13 -6 -13 -13z"/>
<path d="M2460 1080 c0 -6 7 -10 15 -10 8 0 15 2 15 4 0 2 -7 6 -15 10 -8 3
-15 1 -15 -4z"/>
<path d="M2247 989 c4 -13 8 -18 11 -10 2 7 -1 18 -6 23 -8 8 -9 4 -5 -13z"/>
</g>
</svg>
