<?xml version="1.0" standalone="no"?>
<!DOCTYPE svg PUBLIC "-//W3C//DTD SVG 20010904//EN"
 "http://www.w3.org/TR/2001/REC-SVG-20010904/DTD/svg10.dtd">
<svg version="1.0" xmlns="http://www.w3.org/2000/svg"
 width="300.000000pt" height="225.000000pt" viewBox="0 0 300.000000 225.000000"
 preserveAspectRatio="xMidYMid meet">
<metadata>
Created by potrace 1.10, written by Peter Selinger 2001-2011
</metadata>
<g transform="translate(0.000000,225.000000) scale(0.050000,-0.050000)"
fill="#000000" stroke="none">
<path d="M1208 3573 c-481 -160 -1098 -780 -959 -964 17 -22 30 -75 30 -118 1
-110 238 -349 388 -390 215 -60 817 0 1493 151 556 123 861 113 1028 -33 72
-63 212 -301 399 -679 62 -126 130 -252 151 -278 l37 -49 138 117 c165 141
166 123 -14 364 -532 712 -526 705 -714 792 -121 56 -516 60 -665 7 -100 -36
-179 -44 -149 -15 10 10 42 23 69 28 158 28 -181 8 -430 -26 -351 -48 -539
-50 -861 -11 -131 16 -333 35 -449 42 -115 8 -216 18 -224 22 -56 33 480 687
563 687 13 0 21 -54 21 -133 0 -241 194 -381 607 -437 282 -38 535 167 474
384 -11 42 -21 125 -21 185 0 292 -507 489 -912 354z m261 -51 c6 -10 0 -23
-14 -28 -18 -7 -19 -15 -3 -33 17 -18 30 -16 53 7 25 25 43 27 94 9 34 -12 85
-17 112 -12 27 5 49 1 49 -9 0 -10 11 -16 25 -14 199 33 243 -290 56 -414
-160 -106 -557 -91 -515 19 6 16 0 39 -13 53 -12 13 12 1 55 -28 43 -29 92
-52 110 -51 18 1 -2 15 -43 32 -99 41 -112 145 -32 255 23 32 32 51 20 44 -13
-8 -23 -4 -23 8 0 34 -39 3 -83 -67 -29 -46 -37 -51 -27 -18 10 34 6 42 -17
34 -85 -33 -88 136 -3 177 89 42 90 42 90 -5 0 -21 10 -45 23 -53 16 -10 20 2
13 38 -12 60 44 102 73 56z m-389 -121 c0 -21 -9 -44 -20 -51 -11 -7 -20 -3
-20 10 0 15 -11 15 -39 0 -24 -12 -35 -33 -28 -51 9 -23 18 -25 40 -7 50 42
48 6 -2 -41 l-49 -46 -28 68 c-25 60 4 130 42 100 3 -2 19 9 36 26 42 42 68
39 68 -8z m120 -51 c20 -61 18 -76 -19 -124 l-43 -54 -12 48 c-12 45 -14 45
-29 9 -11 -25 -12 -14 -4 31 11 60 59 160 78 160 3 0 16 -31 29 -70z m-284
-88 c19 -53 15 -64 -42 -111 l-64 -53 -28 60 c-26 56 -25 63 20 111 63 66 90
64 114 -7z m319 -142 c5 -128 3 -131 -56 -99 -47 25 -49 62 -7 151 45 95 57
85 63 -52z m-478 29 c33 -72 29 -93 -29 -148 l-52 -49 -37 49 c-50 64 -49 77
15 143 66 69 74 69 103 5z m1304 -22 c11 -30 15 -68 7 -85 -11 -25 -17 -21
-29 18 -33 110 -15 165 22 67z m-1437 -247 c-20 -17 -46 -47 -57 -67 -18 -32
-26 -29 -75 37 l-56 72 67 68 67 69 45 -75 c44 -71 44 -75 9 -104z m1470 73
c-5 -37 -20 -84 -33 -105 -13 -21 -20 -24 -15 -8 5 17 0 47 -10 67 -14 27 -10
46 17 74 50 50 52 49 41 -28z m-786 -16 c-6 -9 -2 -17 9 -17 10 0 22 -27 27
-60 5 -33 7 -60 5 -60 -19 0 -102 54 -107 70 -3 11 -14 34 -23 52 -14 25 -6
31 41 31 32 0 54 -7 48 -16z m672 14 c0 -23 -118 -67 -210 -78 -86 -10 -91 -9
-35 8 36 11 65 29 65 40 0 10 14 19 31 19 17 0 26 -9 19 -20 -17 -28 11 -24
70 10 57 32 60 34 60 21z m-515 -45 c30 -6 55 -17 55 -24 0 -8 34 -12 75 -9
45 2 55 0 25 -6 -63 -14 -83 -45 -58 -91 20 -37 -18 -53 -50 -22 -8 8 -33 15
-56 15 -26 1 -44 16 -48 39 -3 21 -16 45 -29 53 -13 8 -18 24 -11 35 7 11 5
24 -3 29 -8 5 -1 5 15 0 17 -4 55 -13 85 -19z m523 -36 c-8 -32 -4 -50 11 -50
37 0 6 -35 -62 -69 -82 -41 -95 -39 -83 9 6 22 1 40 -12 40 -12 0 -22 14 -22
30 0 18 19 30 45 31 25 0 62 13 84 30 51 39 54 37 39 -21z m-1510 -41 c48 -70
48 -70 10 -139 -46 -86 -51 -86 -116 -1 l-52 68 45 71 c56 87 55 87 113 1z
m1322 -9 c0 -9 -10 -20 -23 -24 -15 -5 -12 -19 9 -40 34 -33 26 -56 -19 -56
-15 0 -27 14 -27 30 0 17 -13 30 -30 30 -16 0 -30 -9 -30 -20 0 -11 -14 -20
-31 -20 -17 0 -26 8 -20 18 6 11 -2 32 -19 49 -46 46 -39 50 80 50 61 0 110
-7 110 -17z m-1369 -258 c-19 -31 -51 -27 -51 6 0 15 -13 38 -30 52 -25 20
-30 19 -30 -9 0 -18 -8 -28 -19 -22 -15 10 -17 74 -3 131 1 5 35 -23 75 -63
39 -40 66 -83 58 -95z m1899 -103 c0 -15 -27 -34 -60 -42 -33 -8 -82 -21 -110
-29 -44 -13 -47 -11 -23 18 14 18 21 41 14 52 -7 11 21 23 64 27 99 10 115 7
115 -26z m605 -41 c167 -85 182 -113 21 -38 -70 33 -185 73 -256 89 l-130 30
119 -8 c81 -6 159 -29 246 -73z m-2427 45 c6 -10 35 -13 65 -7 37 7 61 -1 80
-27 26 -35 27 -35 27 0 0 28 10 33 45 21 25 -8 79 -13 120 -12 59 2 76 -5 77
-33 2 -32 3 -32 12 2 7 28 20 33 53 23 24 -8 77 -13 118 -12 59 2 75 -4 75
-33 0 -21 6 -26 15 -13 24 35 225 32 225 -3 0 -16 -8 -29 -19 -29 -10 0 -17
-18 -16 -40 2 -22 11 -40 19 -40 27 0 18 -55 -11 -66 -15 -6 -39 -3 -54 6 -17
11 -36 5 -52 -16 -16 -22 -26 -25 -26 -9 -1 14 -14 25 -29 25 -16 0 -33 11
-39 25 -5 14 -12 -6 -14 -45 -3 -49 -7 -57 -13 -25 -5 27 -23 45 -46 45 -27 0
-34 -12 -28 -45 5 -25 -3 -16 -17 20 -24 63 -27 64 -53 27 -30 -40 -60 -27
-89 38 -7 17 -10 0 -6 -37 7 -66 6 -67 -26 -25 -24 32 -38 37 -54 21 -17 -17
-27 -12 -37 20 -12 37 -17 39 -37 14 -27 -34 -113 -11 -113 31 -1 21 -4 21
-17 0 -17 -27 -83 -12 -83 19 0 11 -9 14 -21 6 -26 -16 -83 29 -67 54 6 10 -3
41 -20 67 -18 27 -32 53 -32 59 0 18 77 12 88 -6z m1585 -53 c2 -30 -8 -51
-25 -52 -55 -5 -65 -8 -80 -23 -21 -21 -88 -19 -88 3 0 10 11 23 25 29 19 7
18 15 -4 30 -38 26 -5 39 149 60 11 2 21 -20 23 -47z m1028 -3 c15 -39 27 -47
42 -32 22 22 77 13 77 -12 -2 -58 -38 -62 -115 -11 -65 42 -77 59 -58 80 31
36 31 36 54 -25z m-1249 -47 c2 -60 -47 -98 -92 -70 -11 7 -20 3 -20 -9 0 -11
-16 -21 -36 -21 -28 0 -36 16 -36 69 0 72 -1 72 152 88 20 2 31 -16 32 -57z
m-336 16 c19 -19 24 -19 24 0 0 25 64 34 85 12 7 -7 2 -30 -11 -51 -19 -31
-18 -42 5 -57 38 -23 22 -39 -51 -50 -32 -5 -78 -14 -103 -22 -34 -9 -45 -4
-45 20 0 17 9 32 20 32 12 0 12 18 0 51 -34 89 13 128 76 65z m1784 -58 c23
-16 24 -24 5 -31 -27 -11 -35 -67 -9 -67 9 0 27 11 39 23 18 18 27 15 37 -12
8 -19 5 -41 -6 -48 -11 -7 -24 -24 -28 -38 -5 -15 -31 4 -64 45 -74 93 -55
186 26 128z m154 -172 c7 -19 3 -37 -10 -41 -29 -10 -32 -65 -4 -65 11 0 20
14 20 30 0 38 28 39 59 1 24 -29 -48 -161 -77 -142 -46 29 -87 155 -66 201 27
58 60 65 78 16z m176 -227 l56 -80 -61 -60 -61 -60 -50 90 -51 90 40 50 c53
67 62 65 127 -30z m109 -166 c10 -26 32 -53 49 -60 50 -19 38 -59 -37 -132
l-69 -67 -26 58 c-14 32 -37 70 -51 84 -37 40 -31 68 28 118 67 58 84 58 106
-1z m100 -268 c-2 -57 -81 -110 -109 -73 -41 54 -37 80 6 42 33 -30 37 -29 60
7 25 40 45 51 43 24z"/>
<path d="M1790 3400 c11 -18 2 -21 -32 -11 -37 11 -33 5 17 -27 36 -23 65 -52
65 -65 0 -13 -23 -2 -52 25 -62 59 -245 69 -298 17 -28 -28 -23 -30 45 -24
l75 7 -50 -41 c-27 -23 -41 -41 -30 -39 53 7 90 -5 90 -29 0 -15 37 -38 83
-51 90 -27 105 -19 129 73 7 25 22 45 34 45 11 0 0 23 -26 50 -26 28 -38 50
-27 50 29 0 81 -62 93 -110 7 -31 10 -28 12 14 1 29 -7 59 -18 66 -12 7 -15
23 -7 34 8 13 4 16 -9 8 -13 -8 -42 -4 -66 9 -33 18 -39 17 -28 -1z"/>
<path d="M1380 3153 c0 -17 35 -51 77 -77 43 -25 77 -55 75 -66 -1 -11 37 -23
85 -26 64 -5 83 0 72 18 -10 15 -7 19 7 10 12 -7 38 0 58 17 20 17 54 44 76
62 37 29 36 29 -20 3 -89 -41 -226 -26 -335 36 -75 42 -95 47 -95 23z"/>
<path d="M824 3234 c-26 -31 2 -85 34 -65 26 16 30 91 4 91 -9 0 -27 -12 -38
-26z"/>
<path d="M679 3089 c-18 -22 -19 -37 -4 -52 26 -26 65 -6 65 33 0 43 -33 53
-61 19z"/>
<path d="M530 2940 c-24 -39 20 -87 48 -52 26 30 15 72 -18 72 -10 0 -23 -9
-30 -20z"/>
<path d="M402 2773 c-17 -21 -16 -33 5 -51 22 -18 31 -16 41 9 26 69 -2 95
-46 42z"/>
<path d="M625 2347 c0 -33 11 -47 38 -47 20 0 37 9 37 20 0 11 -11 20 -25 20
-19 1 -18 5 2 18 20 13 17 19 -13 27 -31 8 -39 0 -39 -38z"/>
<path d="M1145 2307 c0 -33 11 -47 38 -47 20 0 37 9 37 20 0 11 -11 20 -25 20
-19 1 -18 5 2 18 20 13 17 19 -13 27 -31 8 -39 0 -39 -38z"/>
<path d="M3384 3495 c-15 -19 33 -74 187 -215 113 -104 203 -193 199 -196 -4
-4 -140 43 -302 105 -604 230 -365 39 474 -379 279 -140 398 -225 353 -253
-27 -17 -31 -10 93 -188 l78 -111 -33 -70 c-92 -192 58 -639 263 -785 463
-330 922 200 533 616 -51 54 -87 108 -80 119 18 29 -115 122 -176 122 -39 0
-87 34 -178 127 -69 70 -143 137 -165 149 -91 49 0 47 101 -2 60 -29 145 -59
190 -66 52 -9 94 -31 120 -64 57 -73 155 -128 201 -113 21 6 79 -3 128 -22
394 -151 761 227 465 480 -191 164 -720 206 -867 69 -41 -39 -43 -39 -216 1
-207 49 -183 48 -219 11 -44 -44 -195 27 -434 204 -421 311 -694 487 -715 461z
m1093 -747 c59 31 96 20 178 -54 62 -56 56 -80 -15 -70 -32 5 -62 0 -66 -11
-3 -11 -37 -13 -85 -3 -79 17 -79 17 -20 28 52 11 43 16 -81 49 -175 45 -218
69 -112 63 45 -2 93 3 108 12 17 11 28 7 32 -12 6 -26 14 -26 61 -2z m941 -29
c192 -31 322 -126 322 -234 0 -111 -455 -13 -605 130 -117 111 -8 151 283 104z
m-468 -100 c115 -38 116 -40 33 -29 -48 6 -111 24 -140 40 -75 40 -33 36 107
-11z m-152 -518 c291 -148 473 -581 245 -581 -144 0 -273 118 -385 350 -114
237 -57 332 140 231z"/>
</g>
</svg>
